<svg width="1036" height="578" viewBox="0 0 1036 578" fill="none" xmlns="http://www.w3.org/2000/svg">
<rect width="1036" height="578" rx="40" fill="url(#paint0_linear_31_5)"/>
<g filter="url(#filter0_d_31_5)">
<path d="M357.776 479.95H341.682L315.833 444.212C309.493 449.885 302.746 455.234 295.593 460.258C288.603 465.12 281.206 469.415 273.403 473.143C265.599 476.708 257.552 479.545 249.261 481.652C241.133 483.759 232.842 484.812 224.388 484.812C206.018 484.812 188.704 481.733 172.447 475.574C156.353 469.415 142.209 460.501 130.017 448.832C117.986 437 108.476 422.576 101.486 405.558C94.4952 388.54 91 369.172 91 347.454C91 327.195 94.4952 308.638 101.486 291.782C108.476 274.764 117.986 260.178 130.017 248.022C142.209 235.867 156.353 226.466 172.447 219.821C188.704 213.014 206.018 209.611 224.388 209.611C232.842 209.611 241.214 210.664 249.505 212.771C257.796 214.878 265.843 217.795 273.646 221.523C281.45 225.251 288.847 229.627 295.837 234.651C302.99 239.675 309.655 245.105 315.833 250.939L339.975 218.363H357.776L357.776 479.95ZM290.716 347.454C290.716 338.378 288.928 329.626 285.351 321.198C281.937 312.608 277.223 305.072 271.208 298.589C265.193 291.944 258.121 286.677 249.993 282.787C242.027 278.735 233.492 276.709 224.388 276.709C215.284 276.709 206.668 278.249 198.539 281.328C190.574 284.408 183.583 288.946 177.568 294.942C171.716 300.939 167.082 308.395 163.668 317.309C160.254 326.061 158.547 336.109 158.547 347.454C158.547 358.8 160.254 368.929 163.668 377.843C167.082 386.595 171.716 393.97 177.568 399.966C183.583 405.963 190.574 410.501 198.539 413.581C206.668 416.66 215.284 418.2 224.388 418.2C233.492 418.2 242.027 416.255 249.993 412.365C258.121 408.313 265.193 403.046 271.208 396.563C277.223 389.918 281.937 382.381 285.351 373.953C288.928 365.364 290.716 356.531 290.716 347.454Z" fill="white"/>
<path d="M456.78 478.734H390.208V284.489H357.776V218.363H390.208V205.964C390.208 189.919 393.216 174.846 399.231 160.745C405.409 146.645 413.781 134.408 424.348 124.036C435.078 113.501 447.514 105.235 461.658 99.2382C475.801 93.0794 490.92 90 507.014 90H557.004V156.126H507.014C499.861 156.126 493.196 157.423 487.018 160.016C481.003 162.447 475.72 165.932 471.168 170.47C466.779 174.846 463.283 180.113 460.682 186.272C458.081 192.269 456.78 198.833 456.78 205.964V218.363H538.471V284.489H456.78V478.734Z" fill="white"/>
<path d="M623.333 478.248H471.168V412.122H623.333C627.885 412.122 631.786 410.501 635.038 407.26C638.289 404.018 639.915 400.128 639.915 395.59C639.915 390.89 638.289 387.811 635.038 386.352C631.786 384.893 627.885 384.164 623.333 384.164H554.078C542.536 384.164 531.725 381.976 521.646 377.6C511.566 373.224 502.788 367.308 495.309 359.853C487.831 352.236 481.897 343.403 477.508 333.354C473.281 323.305 471.168 312.527 471.168 301.02C471.168 289.513 473.281 278.735 477.508 268.686C481.897 258.638 487.831 249.886 495.309 242.43C502.788 234.975 511.566 229.14 521.646 224.927C531.725 220.551 519.126 218.363 530.668 218.363H688.929V284.489H554.078C549.526 284.489 545.625 286.109 542.373 289.351C539.122 292.592 537.496 296.482 537.496 301.02C537.496 305.72 539.122 309.772 542.373 313.176C545.625 316.417 549.526 318.038 554.078 318.038H623.333C634.712 318.038 645.442 319.983 655.521 323.873C665.601 327.6 674.379 332.868 681.857 339.675C689.336 346.482 695.269 354.667 699.659 364.229C704.048 373.791 706.243 384.245 706.243 395.59C706.243 407.098 704.048 417.875 699.659 427.924C695.269 437.811 689.336 446.563 681.857 454.18C674.379 461.635 665.601 467.551 655.521 471.927C645.442 476.141 634.712 478.248 623.333 478.248Z" fill="white"/>
<path d="M944 482.138H927.906L902.057 446.401C895.717 452.073 888.97 457.422 881.817 462.446C874.827 467.308 867.43 471.603 859.627 475.331C851.823 478.896 843.776 481.733 835.485 483.84C827.357 485.947 819.066 487 810.612 487C792.242 487 774.928 483.921 758.671 477.762C742.577 471.603 728.433 462.689 716.241 451.02C704.211 439.188 694.7 424.764 687.71 407.746C680.719 390.728 677.224 371.36 677.224 349.642C677.224 329.383 680.719 310.826 687.71 293.97C694.7 276.952 704.211 262.366 716.241 250.21C728.433 238.055 742.577 228.654 758.671 222.009C774.928 215.202 792.242 211.799 810.612 211.799C819.066 211.799 827.438 212.852 835.729 214.959C844.02 217.066 852.067 219.983 859.871 223.711C867.674 227.439 875.071 231.815 882.061 236.839C889.214 241.863 895.88 247.293 902.057 253.127L927.906 222.252H944V482.138ZM876.94 349.642C876.94 340.566 875.152 331.814 871.576 323.386C868.162 314.796 863.447 307.26 857.432 300.777C851.417 294.132 844.345 288.865 836.217 284.975C828.251 280.923 819.716 278.897 810.612 278.897C801.508 278.897 792.892 280.437 784.764 283.516C776.798 286.596 769.807 291.134 763.792 297.13C757.94 303.127 753.307 310.583 749.893 319.497C746.479 328.249 744.772 338.297 744.772 349.642C744.772 360.988 746.479 371.117 749.893 380.031C753.307 388.783 757.94 396.158 763.792 402.154C769.807 408.151 776.798 412.689 784.764 415.769C792.892 418.848 801.508 420.388 810.612 420.388C819.716 420.388 828.251 418.443 836.217 414.553C844.345 410.501 851.417 405.234 857.432 398.751C863.447 392.106 868.162 384.569 871.576 376.141C875.152 367.552 876.94 358.719 876.94 349.642Z" fill="white"/>
</g>
<defs>
<filter id="filter0_d_31_5" x="88" y="89" width="859" height="403" filterUnits="userSpaceOnUse" color-interpolation-filters="sRGB">
<feFlood flood-opacity="0" result="BackgroundImageFix"/>
<feColorMatrix in="SourceAlpha" type="matrix" values="0 0 0 0 0 0 0 0 0 0 0 0 0 0 0 0 0 0 127 0" result="hardAlpha"/>
<feOffset dy="2"/>
<feGaussianBlur stdDeviation="1.5"/>
<feComposite in2="hardAlpha" operator="out"/>
<feColorMatrix type="matrix" values="0 0 0 0 0 0 0 0 0 0 0 0 0 0 0 0 0 0 0.25 0"/>
<feBlend mode="normal" in2="BackgroundImageFix" result="effect1_dropShadow_31_5"/>
<feBlend mode="normal" in="SourceGraphic" in2="effect1_dropShadow_31_5" result="shape"/>
</filter>
<linearGradient id="paint0_linear_31_5" x1="-29.8527" y1="459.032" x2="1339.81" y2="137.806" gradientUnits="userSpaceOnUse">
<stop stop-color="#BB9041"/>
<stop offset="0.975879" stop-color="#FDCC63"/>
</linearGradient>
</defs>
</svg>
