<svg width="57" height="106" viewBox="0 0 57 106" fill="none" xmlns="http://www.w3.org/2000/svg">
<g filter="url(#filter0_d_84_54)">
<path d="M45.496 38.096H28.216V98H16.952V38.096H4.92V32.848L16.952 29.008V25.04C16.952 19.152 17.8053 14.3733 19.512 10.704C21.304 7.03466 23.864 4.34666 27.192 2.63999C30.52 0.933327 34.5307 0.0799942 39.224 0.0799942C41.9547 0.0799942 44.4293 0.335993 46.648 0.847992C48.952 1.27466 50.9147 1.78666 52.536 2.384L49.592 11.216C48.2267 10.7893 46.648 10.3627 44.856 9.936C43.064 9.50933 41.2293 9.296 39.352 9.296C35.5973 9.296 32.7813 10.576 30.904 13.136C29.112 15.6107 28.216 19.536 28.216 24.912V29.392H45.496V38.096Z" fill="url(#paint0_linear_84_54)"/>
</g>
<defs>
<filter id="filter0_d_84_54" x="0.920044" y="0.0799561" width="55.616" height="105.92" filterUnits="userSpaceOnUse" color-interpolation-filters="sRGB">
<feFlood flood-opacity="0" result="BackgroundImageFix"/>
<feColorMatrix in="SourceAlpha" type="matrix" values="0 0 0 0 0 0 0 0 0 0 0 0 0 0 0 0 0 0 127 0" result="hardAlpha"/>
<feOffset dy="4"/>
<feGaussianBlur stdDeviation="2"/>
<feComposite in2="hardAlpha" operator="out"/>
<feColorMatrix type="matrix" values="0 0 0 0 0 0 0 0 0 0 0 0 0 0 0 0 0 0 0.25 0"/>
<feBlend mode="normal" in2="BackgroundImageFix" result="effect1_dropShadow_84_54"/>
<feBlend mode="normal" in="SourceGraphic" in2="effect1_dropShadow_84_54" result="shape"/>
</filter>
<linearGradient id="paint0_linear_84_54" x1="-18.9574" y1="-13" x2="14.6181" y2="93.9956" gradientUnits="userSpaceOnUse">
<stop stop-color="#1E995C"/>
<stop offset="1" stop-color="#7CD450"/>
</linearGradient>
</defs>
</svg>
